<mxfile host="app.diagrams.net" modified="2024-07-14T02:47:45.367Z" agent="Mozilla/5.0 (Windows NT 10.0; Win64; x64) AppleWebKit/537.36 (KHTML, like Gecko) Chrome/126.0.0.0 Safari/537.36" version="24.4.9" etag="vI7MFhA9tbtj1T9h27mq" type="github">
  <diagram name="第 1 页" id="fPwDbnv-rg2rnWRT4p6x">
    <mxGraphModel>
      <root>
        <mxCell id="0" />
        <mxCell id="1" parent="0" />
      </root>
    </mxGraphModel>
  </diagram>
</mxfile>
